<svg xmlns="http://www.w3.org/2000/svg" version="1.1" xmlns:xlink="http://www.w3.org/1999/xlink" xmlns:svgjs="http://svgjs.dev/svgjs" width="2000" height="338" viewBox="0 0 2000 338"><g transform="matrix(1,0,0,1,-1.2121212121212466,-0.5166196761838364)"><svg viewBox="0 0 396 67" data-background-color="#000000" preserveAspectRatio="xMidYMid meet" height="338" width="2000" xmlns="http://www.w3.org/2000/svg" xmlns:xlink="http://www.w3.org/1999/xlink"><g id="tight-bounds" transform="matrix(1,0,0,1,0.2400000000000091,0.10240685888851431)"><svg viewBox="0 0 395.52 66.795186282223" height="66.795186282223" width="395.52"><g><svg viewBox="0 0 492.9997169567167 83.2575038713772" height="66.795186282223" width="395.52"><g transform="matrix(1,0,0,1,97.47971695671673,11.506644891051408)"><svg viewBox="0 0 395.52 60.24421408927438" height="60.24421408927438" width="395.52"><g id="textblocktransform"><svg viewBox="0 0 395.52 60.24421408927438" height="60.24421408927438" width="395.52" id="textblock"><g><svg viewBox="0 0 395.52 60.24421408927438" height="60.24421408927438" width="395.52"><g transform="matrix(1,0,0,1,0,0)"><svg width="395.52" viewBox="2.76 -34.67 230.79000000000002 35.160000000000004" height="60.24421408927438" data-palette-color="url(#9decee54-cd29-44aa-9de6-aa4e20881eec)"></svg></g></svg></g></svg></g></svg></g><g><svg viewBox="0 0 83.2575038713772 83.2575038713772" height="83.2575038713772" width="83.2575038713772"><g><svg></svg></g><g id="icon-0"><svg viewBox="0 0 83.2575038713772 83.2575038713772" height="83.2575038713772" width="83.2575038713772"><g></g><g transform="matrix(1,0,0,1,16.651501127930636,16.65150077427544)"><svg viewBox="0 0 49.95450161551592 49.954502322826315" height="49.954502322826315" width="49.95450161551592"><g><svg xmlns="http://www.w3.org/2000/svg" xmlns:xlink="http://www.w3.org/1999/xlink" version="1.1" x="0" y="0" viewBox="0 -0.0000014159092122756351 100 100.00000141590921" style="enable-background:new 0 0 100 100;" xml:space="preserve" id="dxe-0" width="49.95450161551592" height="49.954502322826315" class="icon-dxe-0" data-fill-palette-color="quaternary"><path d="M62.5 50C55.597 50 50 55.597 50 62.5 50 69.409 55.597 75 62.5 75 69.409 75 75 69.409 75 62.5 75 55.597 69.409 50 62.5 50" fill="#000000" data-fill-palette-color="quaternary"></path><path d="M87.5 25L77.222 4.242A6.27 6.27 0 0 0 71.289 0H54.126A6.25 6.25 0 0 0 48.175 4.327L37.512 25H12.5C5.597 25 0 30.597 0 37.5V100H100V37.5C100 30.597 94.409 25 87.5 25M18.75 50C15.295 50 12.5 47.205 12.5 43.75S15.295 37.5 18.75 37.5 25 40.295 25 43.75 22.205 50 18.75 50M62.5 87.5C48.693 87.5 37.5 76.307 37.5 62.5S48.693 37.5 62.5 37.5 87.5 48.693 87.5 62.5 76.307 87.5 62.5 87.5" fill="#000000" data-fill-palette-color="quaternary"></path></svg></g></svg></g></svg></g></svg></g></svg></g><defs></defs><mask id="1fe41138-fac9-4c86-beb7-7647c4718152"><g id="SvgjsG1007"><svg viewBox="0 0 395.52 66.795186282223" height="66.795186282223" width="395.52"><g><svg viewBox="0 0 492.9997169567167 83.2575038713772" height="66.795186282223" width="395.52"><g transform="matrix(1,0,0,1,97.47971695671673,11.506644891051408)"><svg viewBox="0 0 395.52 60.24421408927438" height="60.24421408927438" width="395.52"><g id="SvgjsG1006"><svg viewBox="0 0 395.52 60.24421408927438" height="60.24421408927438" width="395.52" id="SvgjsSvg1005"><g><svg viewBox="0 0 395.52 60.24421408927438" height="60.24421408927438" width="395.52"><g transform="matrix(1,0,0,1,0,0)"><svg width="395.52" viewBox="2.76 -34.67 230.79000000000002 35.160000000000004" height="60.24421408927438" data-palette-color="url(#9decee54-cd29-44aa-9de6-aa4e20881eec)"><path d="M23.22-10.45L23.22-10.45Q23.56-10.45 27.95-19.93 32.35-29.42 33.37-30.98 34.4-32.54 35.74-33.09 37.08-33.64 40.03-33.64 42.97-33.64 42.97-32.28L42.97-32.28 42.38-31.54 41.63-30.74Q40.89-29.79 40.59-28.53 40.28-27.27 40.28-24.39L40.28-24.39Q40.28-12.13 40.92-6.52L40.92-6.52Q41.16-4.32 42.5-3.06 43.85-1.81 43.85-1.39L43.85-1.39 43.24-0.95Q42.07-0.42 38.62-0.42 35.18-0.42 34.3-1.32L34.3-1.32 34.06-1.86Q34.06-2.56 34.59-4.77 35.13-6.98 35.13-9.18L35.13-9.18Q35.13-25.2 34.11-25.2L34.11-25.2Q33.59-25.2 29.44-15.28 25.29-5.37 24.35-3.65 23.41-1.93 21.88-1.93L21.88-1.93Q20.8-1.93 16-13.66 11.21-25.39 10.38-25.39L10.38-25.39Q9.69-25.39 9.69-13.4L9.69-13.4Q9.69-8.08 9.86-6.86 10.03-5.64 10.44-3.93 10.84-2.22 10.84-1.66 10.84-1.1 10.08-0.73 9.33-0.37 8.13-0.37L8.13-0.37 6.79-0.37Q2.76-0.37 2.76-1.39L2.76-1.39Q2.76-1.9 4.14-3.09 5.52-4.27 5.75-5.14 5.98-6.01 6.37-13.93 6.76-21.85 6.76-24.68 6.76-27.51 6.42-28.63 6.08-29.74 4.85-30.96 3.61-32.18 3.61-32.81L3.61-32.81Q3.61-33.59 8.13-33.59L8.13-33.59Q9.86-33.59 11.13-33.12 12.4-32.64 13.64-30.85 14.87-29.05 18.8-19.75 22.73-10.45 23.22-10.45ZM53.85-12.57L53.85-12.57 53.85-11.67Q53.85-7.52 55.47-4.79L55.47-4.79Q56.22-3.49 57.39-2.73 58.57-1.98 59.76-1.98L59.76-1.98 60.25-1.98Q62.47-1.98 64.1-4.14 65.72-6.3 65.72-10.28L65.72-10.28 65.72-12.01Q65.72-15.94 64.1-18.69 62.47-21.44 59.98-21.44L59.98-21.44 59.23-21.44Q56.98-21.44 55.42-19.02 53.85-16.6 53.85-12.57ZM71.6-12.48L71.6-12.48 71.6-11.25Q71.6-9.33 70.82-7.03L70.82-7.03Q69.19-2.25 64.3-0.34L64.3-0.34Q62.18 0.49 60.2 0.49L60.2 0.49 59.4 0.49Q54.73 0.49 51.61-2.64L51.61-2.64Q50.19-4.05 49.31-6.37 48.44-8.69 48.44-11.3L48.44-11.3 48.44-11.72Q48.44-14.09 49.27-16.5L49.27-16.5Q50.88-21.22 55.59-23.05L55.59-23.05Q57.71-23.88 59.67-23.88L59.67-23.88 60.89-23.88Q63.06-23.88 65.16-22.9L65.16-22.9Q69.14-21.04 70.7-16.99L70.7-16.99Q71.6-14.6 71.6-12.48ZM93.51-4.58Q93.7-5.52 93.7-11.08 93.7-16.65 92.84-18.36 91.99-20.07 89.67-20.07L89.67-20.07Q88.28-20.07 86.79-18.98 85.3-17.9 84.81-16.58 84.32-15.26 84.32-10.44 84.32-5.62 84.41-4.49 84.49-3.37 84.76-2.73L84.76-2.73 85.08-2.12Q85.47-1.37 85.47-1.03L85.47-1.03Q85.47-0.12 81.73-0.12 78-0.12 76.87-0.88L76.87-0.88 76.44-1.34Q76.44-2.03 76.92-2.51L76.92-2.51Q78.39-4 78.66-4.79 78.93-5.57 78.93-11.71 78.93-17.85 77.88-19.73L77.88-19.73 77.36-20.39Q76.73-21.19 76.73-21.62 76.73-22.05 77.64-22.62 78.56-23.19 80.5-23.19 82.44-23.19 83.42-22.16 84.39-21.12 84.81-21.12L84.81-21.12 85.54-21.46 87.4-22.56Q89.67-23.75 92.01-23.75 94.36-23.75 96.48-22.33 98.6-20.9 99.14-20.9L99.14-20.9 99.97-21.29 100.87-21.83Q102.02-22.51 103.34-23.05L103.34-23.05Q104.61-23.58 106.71-23.58L106.71-23.58Q110.71-23.58 112.37-20.26L112.37-20.26Q113.59-17.82 113.59-8.84L113.59-8.84Q113.59-4.98 113.84-4.36 114.08-3.74 115.16-2.86 116.23-1.98 116.23-1.83L116.23-1.83 116.23-1.25 115.77-0.81Q114.59-0.1 109.81-0.1L109.81-0.1Q107.51-0.1 107.51-1.22L107.51-1.22Q107.51-1.34 107.84-2.32 108.17-3.3 108.23-3.89 108.3-4.49 108.3-10.11 108.3-15.72 107.75-17.15 107.2-18.58 106.38-19.35 105.56-20.12 103.9-20.12 102.24-20.12 101.09-19.21 99.95-18.31 99.48-17.2 99.02-16.09 99.02-10.5 99.02-4.91 99.36-4.04 99.7-3.17 100.64-2.34 101.58-1.51 101.58-1.25L101.58-1.25Q101.58-0.02 97.31-0.02L97.31-0.02 93.89-0.02Q91.33-0.02 91.33-0.77 91.33-1.51 91.96-2.2L91.96-2.2Q93.33-3.64 93.51-4.58ZM135.64-15.87L135.64-15.87 135.64-16.63Q135.64-18.43 134.34-19.89 133.05-21.34 131.17-21.34L131.17-21.34 130.71-21.34Q130.36-21.29 130.24-21.29L130.24-21.29Q128.53-21.29 127.01-19.34 125.48-17.38 125.48-15.16L125.48-15.16 125.48-14.84Q125.48-14.06 126.41-14.06L126.41-14.06Q126.77-13.99 126.8-13.99L126.8-13.99 127.36-13.96 127.51-13.96 127.68-13.99 132.39-14.26 133.27-14.36Q135.64-14.36 135.64-15.87ZM125.48-9.4L125.48-9.4Q125.48-6.62 127.58-4.74 129.68-2.86 132.9-2.86L132.9-2.86Q134.2-2.86 135.26-3.23 136.32-3.61 137.58-4.15 138.84-4.69 139.15-4.69L139.15-4.69Q140.13-4.69 140.13-3.64L140.13-3.64Q140.13-2.22 136.52-0.61L136.52-0.61Q134.17 0.44 131.49 0.44L131.49 0.44 130.95 0.44Q126.36 0.44 123.33-2.34L123.33-2.34Q121.7-3.86 120.79-6.21 119.89-8.57 119.89-11.28L119.89-11.28 119.91-11.84 119.91-12.4Q119.91-14.75 120.99-17.02L120.99-17.02Q122.09-19.29 123.6-20.75L123.6-20.75Q126.8-23.83 131.19-23.85L131.19-23.85Q137.83-23.85 140.03-18.68L140.03-18.68Q140.72-17.04 140.72-15.67L140.72-15.67 140.72-15.19Q140.72-13.5 139.32-12.93 137.93-12.35 132.76-11.99 127.58-11.62 127.14-11.5L127.14-11.5Q125.48-11.08 125.48-9.4ZM150.11-0.2L148.6-0.2Q145.16-0.2 145.16-1.17L145.16-1.17Q145.16-1.98 146.06-2.49L146.06-2.49Q147.7-3.42 147.96-4.16 148.23-4.91 148.23-11.22 148.23-17.53 147.85-18.62 147.48-19.7 146.47-20.41 145.47-21.12 145.47-21.56 145.47-22 146.13-22.39L146.13-22.39Q147.67-23.29 151.02-23.29L151.02-23.29Q152.02-23.29 152.58-22.61L152.58-22.61Q152.77-22.36 153.13-21.55 153.48-20.73 153.6-20.73L153.6-20.73Q154.07-20.75 155.04-21.39L155.04-21.39Q158.41-23.66 161.15-23.66L161.15-23.66 161.2-23.66 161.98-23.66Q163.95-23.66 165.54-22.68 167.13-21.7 168-19.75 168.86-17.8 168.86-11.24 168.86-4.69 169.14-3.92 169.42-3.15 170.73-2.49 172.04-1.83 172.04-1.2L172.04-1.2Q172.04-0.1 165.1-0.1L165.1-0.1 164.37-0.1Q162.17-0.1 162.17-1.15L162.17-1.15Q162.17-1.37 162.71-2.21 163.25-3.05 163.44-4.08 163.64-5.1 163.64-10.83 163.64-16.55 162.93-18.19L162.93-18.19Q161.95-20.43 159.68-20.43L159.68-20.43Q158.02-20.43 156.47-19.67 154.92-18.9 154.23-17.49 153.53-16.09 153.53-10.78 153.53-5.47 153.82-4.36 154.12-3.25 154.53-2.56L154.53-2.56 155.43-1.1Q155.43-0.15 151.6-0.15L151.6-0.15 150.11-0.2ZM186-3.22L186-3.22 189.71-3.78Q190.34-3.78 190.34-2.8 190.34-1.81 188.46-0.76 186.58 0.29 184.51 0.29L184.51 0.29 184.02 0.29Q182.38 0.29 181.07-0.56 179.75-1.42 179.14-2.66L179.14-2.66Q178.09-4.83 178.09-10.9 178.09-16.97 177.66-18.48 177.23-20 176.55-20.56L176.55-20.56Q175.28-21.58 175.28-21.68L175.28-21.68Q175.28-22.31 175.94-22.75L175.94-22.75Q177.62-23.88 177.78-24.04 177.94-24.19 179.65-28.03L179.65-28.03Q180.51-29.93 181.59-29.93 182.68-29.93 183.04-29.15L183.04-29.15Q183.14-28.96 183.47-27.03 183.8-25.1 184.41-24.55 185.02-24 187.12-23.5 189.22-23 189.22-22.07 189.22-21.14 186.9-20.68 184.58-20.21 184.09-19.48L184.09-19.48Q183.24-18.24 183.24-12.45 183.24-6.67 183.78-5.15L183.78-5.15Q184.46-3.22 186-3.22ZM202.96-31.88L202.96-31.35Q202.96-30.27 202.05-29.36 201.13-28.44 200.23-28.44L200.23-28.44Q200.03-28.39 199.91-28.39L199.91-28.39 199.37-28.34Q198.15-28.34 197.19-29.15 196.23-29.96 196.23-31.23L196.23-31.23 196.23-31.67Q196.23-32.93 197.24-33.8 198.25-34.67 199.57-34.67L199.57-34.67 199.69-34.67 200.52-34.57Q201.28-34.57 202.1-33.75 202.91-32.93 202.91-32.1L202.91-32.1 202.96-31.88ZM195.2-20.46Q193.93-21.07 193.93-21.61 193.93-22.14 194.44-22.46L194.44-22.46Q196.23-23.54 200.08-23.54L200.08-23.54 200.79-23.54Q202.11-23.54 202.28-22.31L202.28-22.31Q202.38-21.66 202.38-13.44 202.38-5.22 202.72-4.02 203.06-2.81 204.36-2.16 205.65-1.51 205.65-0.85L205.65-0.85Q205.65 0.07 199.59 0.07L199.59 0.07 198.86 0.1 195.88 0.1Q194.1 0.1 194.1-0.78L194.1-0.78Q194.1-1.51 195.19-2.2 196.27-2.88 196.69-3.71L196.69-3.71Q197.15-4.61 197.15-7.93L197.15-7.93 197.18-8.72 197.18-9.47 197.2-10.62 197.2-11.38 197.23-12.13Q197.23-17.92 196.85-18.88 196.47-19.85 195.2-20.46ZM223.96-2.17L223.96-2.17Q223.96-3.56 221.59-6.86L221.59-6.86Q220.51-8.35 220.27-8.35L220.27-8.35Q219.59-8.35 218.46-6.91L218.46-6.91Q216.27-4.13 216.27-2.88L216.27-2.88Q216.27-2.39 216.63-1.62 217-0.85 217-0.76L217-0.76Q217 0.07 213.73 0.07L213.73 0.07 212.97 0.05 212.21 0.05Q208.65 0.05 208.65-0.85L208.65-0.85Q208.65-1.56 210.33-2.53 212.02-3.49 213.53-5.3L213.53-5.3Q217.85-10.47 217.85-11.4L217.85-11.4Q217.85-12.67 213.26-18.31L213.26-18.31Q212.31-19.48 210.71-20.63 209.11-21.78 209.11-22.22L209.11-22.22Q209.11-23.34 216.19-23.34L216.19-23.34 216.93-23.34Q219-23.34 219-22.34L219-22.34Q218.63-21.24 218.63-21.09L218.63-21.09Q218.63-19.73 220.16-17.6 221.69-15.48 221.93-15.48L221.93-15.48Q222.59-15.48 224.15-17.42 225.71-19.36 225.71-20.09 225.71-20.83 225.36-21.51 225.01-22.19 225.01-22.49L225.01-22.49Q225.01-23.27 229.02-23.27 233.04-23.27 233.04-22.19L233.04-22.19Q233.04-21.48 231.37-20.63 229.69-19.78 228.55-18.46L228.55-18.46Q224.32-13.62 224.32-12.38L224.32-12.38Q224.32-10.74 229.87-4.37L229.87-4.37Q230.82-3.27 232.18-2.53 233.55-1.78 233.55-1L233.55-1Q233.55-0.07 228.6-0.07L228.6-0.07 227.06-0.02 225.52-0.02Q223.52-0.02 223.52-1L223.52-1Q223.96-1.95 223.96-2.17Z" opacity="1" transform="matrix(1,0,0,1,0,0)" fill="white" class="wordmark-text-0" id="SvgjsPath1004"></path></svg></g></svg></g></svg></g></svg></g><g><svg viewBox="0 0 83.2575038713772 83.2575038713772" height="83.2575038713772" width="83.2575038713772"><g><svg></svg></g><g id="SvgjsG1003"><svg viewBox="0 0 83.2575038713772 83.2575038713772" height="83.2575038713772" width="83.2575038713772"><g><path transform="scale(0.83258,0.83258)" d="M30 100c-16.569 0-30-13.431-30-30v-40c0-16.569 13.431-30 30-30h40c16.569 0 30 13.431 30 30v40c0 16.569-13.431 30-30 30z" fill="black" fill-rule="nonzero" stroke="none" stroke-width="1" stroke-linecap="butt" stroke-linejoin="miter" stroke-miterlimit="10" stroke-dasharray="" stroke-dashoffset="0" font-family="none" font-weight="none" font-size="none" text-anchor="none" style="mix-blend-mode: normal"></path></g><g transform="matrix(1,0,0,1,16.651501127930636,16.65150077427544)"><svg viewBox="0 0 49.95450161551592 49.954502322826315" height="49.954502322826315" width="49.95450161551592"><g><svg xmlns="http://www.w3.org/2000/svg" xmlns:xlink="http://www.w3.org/1999/xlink" version="1.1" x="0" y="0" viewBox="0 -0.0000014159092122756351 100 100.00000141590921" style="enable-background:new 0 0 100 100;" xml:space="preserve" id="SvgjsSvg1002" width="49.95450161551592" height="49.954502322826315" class="icon-dxe-0" data-fill-palette-color="quaternary"><path d="M62.5 50C55.597 50 50 55.597 50 62.5 50 69.409 55.597 75 62.5 75 69.409 75 75 69.409 75 62.5 75 55.597 69.409 50 62.5 50" fill="black"></path><path d="M87.5 25L77.222 4.242A6.27 6.27 0 0 0 71.289 0H54.126A6.25 6.25 0 0 0 48.175 4.327L37.512 25H12.5C5.597 25 0 30.597 0 37.5V100H100V37.5C100 30.597 94.409 25 87.5 25M18.75 50C15.295 50 12.5 47.205 12.5 43.75S15.295 37.5 18.75 37.5 25 40.295 25 43.75 22.205 50 18.75 50M62.5 87.5C48.693 87.5 37.5 76.307 37.5 62.5S48.693 37.5 62.5 37.5 87.5 48.693 87.5 62.5 76.307 87.5 62.5 87.5" fill="black"></path></svg></g></svg></g></svg></g></svg></g></svg></g><defs><mask></mask></defs></svg><rect width="395.52" height="66.795186282223" fill="black" stroke="none" visibility="hidden"></rect></g></mask><linearGradient x1="0" x2="1" y1="0.578" y2="0.595" id="9decee54-cd29-44aa-9de6-aa4e20881eec"><stop stop-color="#6ee2f5" offset="0"></stop><stop stop-color="#6454f0" offset="1"></stop></linearGradient><rect width="395.52" height="66.795186282223" fill="url(#9decee54-cd29-44aa-9de6-aa4e20881eec)" mask="url(#1fe41138-fac9-4c86-beb7-7647c4718152)" data-fill-palette-color="primary"></rect><mask id="1f9cc48f-07b1-4e7b-b528-75431e35a026"><g id="SvgjsG1030"><svg viewBox="0 0 395.52 66.795186282223" height="66.795186282223" width="395.52"><g><svg viewBox="0 0 492.9997169567167 83.2575038713772" height="66.795186282223" width="395.52"><g transform="matrix(1,0,0,1,97.47971695671673,11.506644891051408)"><svg viewBox="0 0 395.52 60.24421408927438" height="60.24421408927438" width="395.52"><g id="SvgjsG1029"><svg viewBox="0 0 395.52 60.24421408927438" height="60.24421408927438" width="395.52" id="SvgjsSvg1028"><g><svg viewBox="0 0 395.52 60.24421408927438" height="60.24421408927438" width="395.52"><g transform="matrix(1,0,0,1,0,0)"><svg width="395.52" viewBox="2.76 -34.67 230.79000000000002 35.160000000000004" height="60.24421408927438" data-palette-color="url(#9decee54-cd29-44aa-9de6-aa4e20881eec)"></svg></g></svg></g></svg></g></svg></g><g><svg viewBox="0 0 83.2575038713772 83.2575038713772" height="83.2575038713772" width="83.2575038713772"><g><svg></svg></g><g id="SvgjsG1027"><svg viewBox="0 0 83.2575038713772 83.2575038713772" height="83.2575038713772" width="83.2575038713772"><g><path transform="scale(0.83258,0.83258)" d="M30 100c-16.569 0-30-13.431-30-30v-40c0-16.569 13.431-30 30-30h40c16.569 0 30 13.431 30 30v40c0 16.569-13.431 30-30 30z" fill="white" fill-rule="nonzero" stroke="none" stroke-width="1" stroke-linecap="butt" stroke-linejoin="miter" stroke-miterlimit="10" stroke-dasharray="" stroke-dashoffset="0" font-family="none" font-weight="none" font-size="none" text-anchor="none" style="mix-blend-mode: normal"></path></g><g transform="matrix(1,0,0,1,16.651501127930636,16.65150077427544)"><svg viewBox="0 0 49.95450161551592 49.954502322826315" height="49.954502322826315" width="49.95450161551592"><g><svg xmlns="http://www.w3.org/2000/svg" xmlns:xlink="http://www.w3.org/1999/xlink" version="1.1" x="0" y="0" viewBox="0 -0.0000014159092122756351 100 100.00000141590921" style="enable-background:new 0 0 100 100;" xml:space="preserve" id="SvgjsSvg1026" width="49.95450161551592" height="49.954502322826315" class="icon-dxe-0" data-fill-palette-color="quaternary"><path d="M62.5 50C55.597 50 50 55.597 50 62.5 50 69.409 55.597 75 62.5 75 69.409 75 75 69.409 75 62.5 75 55.597 69.409 50 62.5 50" fill="black"></path><path d="M87.5 25L77.222 4.242A6.27 6.27 0 0 0 71.289 0H54.126A6.25 6.25 0 0 0 48.175 4.327L37.512 25H12.5C5.597 25 0 30.597 0 37.5V100H100V37.5C100 30.597 94.409 25 87.5 25M18.75 50C15.295 50 12.5 47.205 12.5 43.75S15.295 37.5 18.75 37.5 25 40.295 25 43.75 22.205 50 18.75 50M62.5 87.5C48.693 87.5 37.5 76.307 37.5 62.5S48.693 37.5 62.5 37.5 87.5 48.693 87.5 62.5 76.307 87.5 62.5 87.5" fill="black"></path></svg></g></svg></g></svg></g></svg></g></svg></g><defs><mask></mask></defs><mask><g id="SvgjsG1025"><svg viewBox="0 0 395.52 66.795186282223" height="66.795186282223" width="395.52"><g><svg viewBox="0 0 492.9997169567167 83.2575038713772" height="66.795186282223" width="395.52"><g transform="matrix(1,0,0,1,97.47971695671673,11.506644891051408)"><svg viewBox="0 0 395.52 60.24421408927438" height="60.24421408927438" width="395.52"><g id="SvgjsG1024"><svg viewBox="0 0 395.52 60.24421408927438" height="60.24421408927438" width="395.52" id="SvgjsSvg1023"><g><svg viewBox="0 0 395.52 60.24421408927438" height="60.24421408927438" width="395.52"><g transform="matrix(1,0,0,1,0,0)"><svg width="395.52" viewBox="2.76 -34.67 230.79000000000002 35.160000000000004" height="60.24421408927438" data-palette-color="url(#9decee54-cd29-44aa-9de6-aa4e20881eec)"><path d="M23.22-10.45L23.22-10.45Q23.56-10.45 27.95-19.93 32.35-29.42 33.37-30.98 34.4-32.54 35.74-33.09 37.08-33.64 40.03-33.64 42.97-33.64 42.97-32.28L42.97-32.28 42.38-31.54 41.63-30.74Q40.89-29.79 40.59-28.53 40.28-27.27 40.28-24.39L40.28-24.39Q40.28-12.13 40.92-6.52L40.92-6.52Q41.16-4.32 42.5-3.06 43.85-1.81 43.85-1.39L43.85-1.39 43.24-0.95Q42.07-0.42 38.62-0.42 35.18-0.42 34.3-1.32L34.3-1.32 34.06-1.86Q34.06-2.56 34.59-4.77 35.13-6.98 35.13-9.18L35.13-9.18Q35.13-25.2 34.11-25.2L34.11-25.2Q33.59-25.2 29.44-15.28 25.29-5.37 24.35-3.65 23.41-1.93 21.88-1.93L21.88-1.93Q20.8-1.93 16-13.66 11.21-25.39 10.38-25.39L10.38-25.39Q9.69-25.39 9.69-13.4L9.69-13.4Q9.69-8.08 9.86-6.86 10.03-5.64 10.44-3.93 10.84-2.22 10.84-1.66 10.84-1.1 10.08-0.73 9.33-0.37 8.13-0.37L8.13-0.37 6.79-0.37Q2.76-0.37 2.76-1.39L2.76-1.39Q2.76-1.9 4.14-3.09 5.52-4.27 5.75-5.14 5.98-6.01 6.37-13.93 6.76-21.85 6.76-24.68 6.76-27.51 6.42-28.63 6.08-29.74 4.85-30.96 3.61-32.18 3.61-32.81L3.61-32.81Q3.61-33.59 8.13-33.59L8.13-33.59Q9.86-33.59 11.13-33.12 12.4-32.64 13.64-30.85 14.87-29.05 18.8-19.75 22.73-10.45 23.22-10.45ZM53.85-12.57L53.85-12.57 53.85-11.67Q53.85-7.52 55.47-4.79L55.47-4.79Q56.22-3.49 57.39-2.73 58.57-1.98 59.76-1.98L59.76-1.98 60.25-1.98Q62.47-1.98 64.1-4.14 65.72-6.3 65.72-10.28L65.72-10.28 65.72-12.01Q65.72-15.94 64.1-18.69 62.47-21.44 59.98-21.44L59.98-21.44 59.23-21.44Q56.98-21.44 55.42-19.02 53.85-16.6 53.85-12.57ZM71.6-12.48L71.6-12.48 71.6-11.25Q71.6-9.33 70.82-7.03L70.82-7.03Q69.19-2.25 64.3-0.34L64.3-0.34Q62.18 0.49 60.2 0.49L60.2 0.49 59.4 0.49Q54.73 0.49 51.61-2.64L51.61-2.64Q50.19-4.05 49.31-6.37 48.44-8.69 48.44-11.3L48.44-11.3 48.44-11.72Q48.44-14.09 49.27-16.5L49.27-16.5Q50.88-21.22 55.59-23.05L55.59-23.05Q57.71-23.88 59.67-23.88L59.67-23.88 60.89-23.88Q63.06-23.88 65.16-22.9L65.16-22.9Q69.14-21.04 70.7-16.99L70.7-16.99Q71.6-14.6 71.6-12.48ZM93.51-4.58Q93.7-5.52 93.7-11.08 93.7-16.65 92.84-18.36 91.99-20.07 89.67-20.07L89.67-20.07Q88.28-20.07 86.79-18.98 85.3-17.9 84.81-16.58 84.32-15.26 84.32-10.44 84.32-5.62 84.41-4.49 84.49-3.37 84.76-2.73L84.76-2.73 85.08-2.12Q85.47-1.37 85.47-1.03L85.47-1.03Q85.47-0.12 81.73-0.12 78-0.12 76.87-0.88L76.87-0.88 76.44-1.34Q76.44-2.03 76.92-2.51L76.92-2.51Q78.39-4 78.66-4.79 78.93-5.57 78.93-11.71 78.93-17.85 77.88-19.73L77.88-19.73 77.36-20.39Q76.73-21.19 76.73-21.62 76.73-22.05 77.64-22.62 78.56-23.19 80.5-23.19 82.44-23.19 83.42-22.16 84.39-21.12 84.81-21.12L84.81-21.12 85.54-21.46 87.4-22.56Q89.67-23.75 92.01-23.75 94.36-23.75 96.48-22.33 98.6-20.9 99.14-20.9L99.14-20.9 99.97-21.29 100.87-21.83Q102.02-22.51 103.34-23.05L103.34-23.05Q104.61-23.58 106.71-23.58L106.71-23.58Q110.71-23.58 112.37-20.26L112.37-20.26Q113.59-17.82 113.59-8.84L113.59-8.84Q113.59-4.98 113.84-4.36 114.08-3.74 115.16-2.86 116.23-1.98 116.23-1.83L116.23-1.83 116.23-1.25 115.77-0.81Q114.59-0.1 109.81-0.1L109.81-0.1Q107.51-0.1 107.51-1.22L107.51-1.22Q107.51-1.34 107.84-2.32 108.17-3.3 108.23-3.89 108.3-4.49 108.3-10.11 108.3-15.72 107.75-17.15 107.2-18.58 106.38-19.35 105.56-20.12 103.9-20.12 102.24-20.12 101.09-19.21 99.95-18.31 99.48-17.2 99.02-16.09 99.02-10.5 99.02-4.91 99.36-4.04 99.7-3.17 100.64-2.34 101.58-1.51 101.58-1.25L101.58-1.25Q101.58-0.02 97.31-0.02L97.31-0.02 93.89-0.02Q91.33-0.02 91.33-0.77 91.33-1.51 91.96-2.2L91.96-2.2Q93.33-3.64 93.51-4.58ZM135.64-15.87L135.64-15.87 135.64-16.63Q135.64-18.43 134.34-19.89 133.05-21.34 131.17-21.34L131.17-21.34 130.71-21.34Q130.36-21.29 130.24-21.29L130.24-21.29Q128.53-21.29 127.01-19.34 125.48-17.38 125.48-15.16L125.48-15.16 125.48-14.84Q125.48-14.06 126.41-14.06L126.41-14.06Q126.77-13.99 126.8-13.99L126.8-13.99 127.36-13.96 127.51-13.96 127.68-13.99 132.39-14.26 133.27-14.36Q135.64-14.36 135.64-15.87ZM125.48-9.4L125.48-9.4Q125.48-6.62 127.58-4.74 129.68-2.86 132.9-2.86L132.9-2.86Q134.2-2.86 135.26-3.23 136.32-3.61 137.58-4.15 138.84-4.69 139.15-4.69L139.15-4.69Q140.13-4.69 140.13-3.64L140.13-3.64Q140.13-2.22 136.52-0.61L136.52-0.61Q134.17 0.44 131.49 0.44L131.49 0.44 130.95 0.44Q126.36 0.44 123.33-2.34L123.33-2.34Q121.7-3.86 120.79-6.21 119.89-8.57 119.89-11.28L119.89-11.28 119.91-11.84 119.91-12.4Q119.91-14.75 120.99-17.02L120.99-17.02Q122.09-19.29 123.6-20.75L123.6-20.75Q126.8-23.83 131.19-23.85L131.19-23.85Q137.83-23.85 140.03-18.68L140.03-18.68Q140.72-17.04 140.72-15.67L140.72-15.67 140.72-15.19Q140.72-13.5 139.32-12.93 137.93-12.35 132.76-11.99 127.58-11.62 127.14-11.5L127.14-11.5Q125.48-11.08 125.48-9.4ZM150.11-0.2L148.6-0.2Q145.16-0.2 145.16-1.17L145.16-1.17Q145.16-1.98 146.06-2.49L146.06-2.49Q147.7-3.42 147.96-4.16 148.23-4.91 148.23-11.22 148.23-17.53 147.85-18.62 147.48-19.7 146.47-20.41 145.47-21.12 145.47-21.56 145.47-22 146.13-22.39L146.13-22.39Q147.67-23.29 151.02-23.29L151.02-23.29Q152.02-23.29 152.58-22.61L152.58-22.61Q152.77-22.36 153.13-21.55 153.48-20.73 153.6-20.73L153.6-20.73Q154.07-20.75 155.04-21.39L155.04-21.39Q158.41-23.66 161.15-23.66L161.15-23.66 161.2-23.66 161.98-23.66Q163.95-23.66 165.54-22.68 167.13-21.7 168-19.75 168.86-17.8 168.86-11.24 168.86-4.69 169.14-3.92 169.42-3.15 170.73-2.49 172.04-1.83 172.04-1.2L172.04-1.2Q172.04-0.1 165.1-0.1L165.1-0.1 164.37-0.1Q162.17-0.1 162.17-1.15L162.17-1.15Q162.17-1.37 162.71-2.21 163.25-3.05 163.44-4.08 163.64-5.1 163.64-10.83 163.64-16.55 162.93-18.19L162.93-18.19Q161.95-20.43 159.68-20.43L159.68-20.43Q158.02-20.43 156.47-19.67 154.92-18.9 154.23-17.49 153.53-16.09 153.53-10.78 153.53-5.47 153.82-4.36 154.12-3.25 154.53-2.56L154.53-2.56 155.43-1.1Q155.43-0.15 151.6-0.15L151.6-0.15 150.11-0.2ZM186-3.22L186-3.22 189.71-3.78Q190.34-3.78 190.34-2.8 190.34-1.81 188.46-0.76 186.58 0.29 184.51 0.29L184.51 0.29 184.02 0.29Q182.38 0.29 181.07-0.56 179.75-1.42 179.14-2.66L179.14-2.66Q178.09-4.83 178.09-10.9 178.09-16.97 177.66-18.48 177.23-20 176.55-20.56L176.55-20.56Q175.28-21.58 175.28-21.68L175.28-21.68Q175.28-22.31 175.94-22.75L175.94-22.75Q177.62-23.88 177.78-24.04 177.94-24.19 179.65-28.03L179.65-28.03Q180.51-29.93 181.59-29.93 182.68-29.93 183.04-29.15L183.04-29.15Q183.14-28.96 183.47-27.03 183.8-25.1 184.41-24.55 185.02-24 187.12-23.5 189.22-23 189.22-22.07 189.22-21.14 186.9-20.68 184.58-20.21 184.09-19.48L184.09-19.48Q183.24-18.24 183.24-12.45 183.24-6.67 183.78-5.15L183.78-5.15Q184.46-3.22 186-3.22ZM202.96-31.88L202.96-31.35Q202.96-30.27 202.05-29.36 201.13-28.44 200.23-28.44L200.23-28.44Q200.03-28.39 199.91-28.39L199.91-28.39 199.37-28.34Q198.15-28.34 197.19-29.15 196.23-29.96 196.23-31.23L196.23-31.23 196.23-31.67Q196.23-32.93 197.24-33.8 198.25-34.67 199.57-34.67L199.57-34.67 199.69-34.67 200.52-34.57Q201.28-34.57 202.1-33.75 202.91-32.93 202.91-32.1L202.91-32.1 202.96-31.88ZM195.2-20.46Q193.93-21.07 193.93-21.61 193.93-22.14 194.44-22.46L194.44-22.46Q196.23-23.54 200.08-23.54L200.08-23.54 200.79-23.54Q202.11-23.54 202.28-22.31L202.28-22.31Q202.38-21.66 202.38-13.44 202.38-5.22 202.72-4.02 203.06-2.81 204.36-2.16 205.65-1.51 205.65-0.85L205.65-0.85Q205.65 0.07 199.59 0.07L199.59 0.07 198.86 0.1 195.88 0.1Q194.1 0.1 194.1-0.78L194.1-0.78Q194.1-1.51 195.19-2.2 196.27-2.88 196.69-3.71L196.69-3.71Q197.15-4.61 197.15-7.93L197.15-7.93 197.18-8.72 197.18-9.47 197.2-10.62 197.2-11.38 197.23-12.13Q197.23-17.92 196.85-18.88 196.47-19.85 195.2-20.46ZM223.96-2.17L223.96-2.17Q223.96-3.56 221.59-6.86L221.59-6.86Q220.51-8.35 220.27-8.35L220.27-8.35Q219.59-8.35 218.46-6.91L218.46-6.91Q216.27-4.13 216.27-2.88L216.27-2.88Q216.27-2.39 216.63-1.62 217-0.85 217-0.76L217-0.76Q217 0.07 213.73 0.07L213.73 0.07 212.97 0.05 212.21 0.05Q208.65 0.05 208.65-0.85L208.65-0.85Q208.65-1.56 210.33-2.53 212.02-3.49 213.53-5.3L213.53-5.3Q217.85-10.47 217.85-11.4L217.85-11.4Q217.85-12.67 213.26-18.31L213.26-18.31Q212.31-19.48 210.71-20.63 209.11-21.78 209.11-22.22L209.11-22.22Q209.11-23.34 216.19-23.34L216.19-23.34 216.93-23.34Q219-23.34 219-22.34L219-22.34Q218.63-21.24 218.63-21.09L218.63-21.09Q218.63-19.73 220.16-17.6 221.69-15.48 221.93-15.48L221.93-15.48Q222.59-15.48 224.15-17.42 225.71-19.36 225.71-20.09 225.71-20.83 225.36-21.51 225.01-22.19 225.01-22.49L225.01-22.49Q225.01-23.27 229.02-23.27 233.04-23.27 233.04-22.19L233.04-22.19Q233.04-21.48 231.37-20.63 229.69-19.78 228.55-18.46L228.55-18.46Q224.32-13.62 224.32-12.38L224.32-12.38Q224.32-10.74 229.87-4.37L229.87-4.37Q230.82-3.27 232.18-2.53 233.55-1.78 233.55-1L233.55-1Q233.55-0.07 228.6-0.07L228.6-0.07 227.06-0.02 225.52-0.02Q223.52-0.02 223.52-1L223.52-1Q223.96-1.95 223.96-2.17Z" opacity="1" transform="matrix(1,0,0,1,0,0)" fill="black" class="wordmark-text-0" id="SvgjsPath1022"></path></svg></g></svg></g></svg></g></svg></g><g><svg viewBox="0 0 83.2575038713772 83.2575038713772" height="83.2575038713772" width="83.2575038713772"><g><svg></svg></g><g id="SvgjsG1021"><svg viewBox="0 0 83.2575038713772 83.2575038713772" height="83.2575038713772" width="83.2575038713772"><g><path transform="scale(0.83258,0.83258)" d="M30 100c-16.569 0-30-13.431-30-30v-40c0-16.569 13.431-30 30-30h40c16.569 0 30 13.431 30 30v40c0 16.569-13.431 30-30 30z" fill="black" fill-rule="nonzero" stroke="none" stroke-width="1" stroke-linecap="butt" stroke-linejoin="miter" stroke-miterlimit="10" stroke-dasharray="" stroke-dashoffset="0" font-family="none" font-weight="none" font-size="none" text-anchor="none" style="mix-blend-mode: normal"></path></g><g transform="matrix(1,0,0,1,16.651501127930636,16.65150077427544)"><svg viewBox="0 0 49.95450161551592 49.954502322826315" height="49.954502322826315" width="49.95450161551592"><g><svg xmlns="http://www.w3.org/2000/svg" xmlns:xlink="http://www.w3.org/1999/xlink" version="1.1" x="0" y="0" viewBox="0 -0.0000014159092122756351 100 100.00000141590921" style="enable-background:new 0 0 100 100;" xml:space="preserve" id="SvgjsSvg1020" width="49.95450161551592" height="49.954502322826315" class="icon-dxe-0" data-fill-palette-color="quaternary"><path d="M62.5 50C55.597 50 50 55.597 50 62.5 50 69.409 55.597 75 62.5 75 69.409 75 75 69.409 75 62.5 75 55.597 69.409 50 62.5 50" fill="black"></path><path d="M87.5 25L77.222 4.242A6.27 6.27 0 0 0 71.289 0H54.126A6.25 6.25 0 0 0 48.175 4.327L37.512 25H12.5C5.597 25 0 30.597 0 37.5V100H100V37.5C100 30.597 94.409 25 87.5 25M18.75 50C15.295 50 12.5 47.205 12.5 43.75S15.295 37.5 18.75 37.5 25 40.295 25 43.75 22.205 50 18.75 50M62.5 87.5C48.693 87.5 37.5 76.307 37.5 62.5S48.693 37.5 62.5 37.5 87.5 48.693 87.5 62.5 76.307 87.5 62.5 87.5" fill="black"></path></svg></g></svg></g></svg></g></svg></g></svg></g><defs><mask></mask></defs></svg><rect width="395.52" height="66.795186282223" fill="black" stroke="none" visibility="hidden"></rect></g></mask></svg><rect width="395.52" height="66.795186282223" fill="black" stroke="none" visibility="hidden"></rect></g></mask><linearGradient x1="0" x2="1" y1="0.578" y2="0.595" id="f3441cbe-50a4-4bbe-bcc8-e9d8ed25ecd6"><stop stop-color="#6ee2f5" offset="0"></stop><stop stop-color="#6454f0" offset="1"></stop></linearGradient><rect width="395.52" height="66.795186282223" fill="url(#f3441cbe-50a4-4bbe-bcc8-e9d8ed25ecd6)" mask="url(#1f9cc48f-07b1-4e7b-b528-75431e35a026)" data-fill-palette-color="accent"></rect></svg><rect width="395.52" height="66.795186282223" fill="none" stroke="none" visibility="hidden"></rect></g></svg></g></svg>